<svg width="20" height="20" viewBox="0 0 20 20" xmlns="http://www.w3.org/2000/svg">
    <g fill="none" fill-rule="evenodd">
        <circle cx="10" cy="10" r="10" fill="#FB6E00"/>
        <path d="M7.5 14.994c4.553 0 7.043-3.772 7.043-7.043 0-.107-.002-.214-.007-.32.483-.35.903-.786 1.235-1.282-.444.197-.921.33-1.422.39a2.485 2.485 0 0 0 1.089-1.37 4.965 4.965 0 0 1-1.572.602 2.476 2.476 0 0 0-4.218 2.257 7.028 7.028 0 0 1-5.103-2.586 2.473 2.473 0 0 0 .766 3.305 2.456 2.456 0 0 1-1.12-.31l-.001.031c0 1.2.853 2.2 1.986 2.427a2.484 2.484 0 0 1-1.118.042 2.478 2.478 0 0 0 2.312 1.72 4.966 4.966 0 0 1-3.665 1.025A7.007 7.007 0 0 0 7.5 14.994" fill="#111" fill-rule="nonzero"/>
    </g>
</svg>
